<?xml version="1.0" encoding="UTF-8"?>
<svg id="Camada_2" data-name="Camada 2" xmlns="http://www.w3.org/2000/svg" viewBox="0 0 439.97 97.4">
  <defs>
    <style>
      .cls-1 {
        fill: #1b186d;
      }

      .cls-1, .cls-2 {
        stroke-width: 0px;
      }

      .cls-2 {
        fill: #f44d37;
      }
    </style>
  </defs>
  <g id="Camada_1-2" data-name="Camada 1">
    <g>
      <g>
        <path class="cls-1" d="m77.81,47.74h20.45v-6.82h-20.45v-6.81h27.26v20.45h-20.45v6.82h20.45v6.82h-27.26v-20.45Z"/>
        <path class="cls-1" d="m111.89,34.11h20.45v6.81h-13.63v6.82h13.63v6.82h-13.63v6.82h17.06v6.82h-23.88v-34.08Z"/>
        <path class="cls-1" d="m142.59,34.11h34.08v20.45h-6.82v13.58h-6.82v-13.58h-13.63v13.58h-6.81v-34.03Zm27.26,13.63v-6.82h-20.45v6.82h20.45Z"/>
        <path class="cls-1" d="m183.48,34.11h27.26v34.08h-27.26v-34.08Zm6.81,27.26h13.63v-20.45h-13.63v20.45Z"/>
        <path class="cls-1" d="m255.56,54.55h-13.63v13.63h-6.82v-34.08h27.26v34.08h-6.82v-13.63Zm-13.63-6.82h13.63v-6.82h-13.63v6.82Z"/>
        <path class="cls-1" d="m307.19,54.55h-13.63v13.63h-6.81v-34.08h6.81v13.63h13.63v-13.63h6.82v34.08h-6.82v-13.63Z"/>
        <path class="cls-1" d="m320.82,34.11h20.45v6.81h-13.63v6.82h13.63v6.82h-13.63v6.82h17.06v6.82h-23.88v-34.08Z"/>
        <path class="cls-1" d="m351.52,34.11h34.08v20.45h-6.82v13.58h-6.82v-13.58h-13.63v13.58h-6.82v-34.03Zm27.26,13.63v-6.82h-20.45v6.82h20.45Z"/>
        <path class="cls-1" d="m392.42,34.11h13.63v-4.89h10.2v4.89h3.43v34.08h-27.26v-34.08Zm6.82,27.26h13.63v-20.45h-13.63v20.45Z"/>
        <rect class="cls-1" x="433.27" y="34.11" width="6.69" height="34.03"/>
        <rect class="cls-1" x="429.97" y="30.8" width="6.69" height="13.3" transform="translate(470.77 -395.87) rotate(90)"/>
      </g>
      <g>
        <polygon class="cls-2" points="53.58 34.09 14.61 34.09 14.61 48.71 9.74 48.71 9.74 29.22 24.35 29.22 24.35 19.49 9.74 19.49 0 19.49 0 19.49 0 29.22 0 29.22 0 48.71 0 53.58 4.87 53.58 4.87 58.44 9.74 58.44 9.74 58.47 9.74 63.32 9.74 77.91 9.71 77.91 9.71 87.66 14.57 87.66 14.57 77.93 19.48 77.93 19.48 82.79 24.35 82.79 24.35 77.91 19.48 77.91 19.48 68.19 24.35 68.19 24.35 63.32 34.09 63.32 34.09 68.19 29.22 68.19 29.22 73.06 34.09 73.06 34.09 77.93 38.95 77.93 38.95 82.79 34.09 82.79 34.09 87.66 38.95 87.66 38.95 92.53 43.82 92.53 43.82 87.66 38.96 87.66 38.96 82.79 43.82 82.79 43.82 77.93 43.82 77.91 43.82 63.32 43.82 58.47 43.82 58.44 48.68 58.44 48.68 53.53 53.58 53.53 53.58 34.09"/>
        <rect class="cls-2" x="0" width="9.73" height="14.61"/>
        <rect class="cls-2" x="14.61" width="9.73" height="14.61"/>
        <rect class="cls-2" x="29.23" y="4.88" width="9.73" height="24.35"/>
        <rect class="cls-2" x="43.84" y="9.73" width="9.73" height="19.49"/>
        <rect class="cls-2" x="24.35" y="87.66" width="4.87" height="4.87"/>
        <rect class="cls-2" x="9.71" y="92.53" width="4.87" height="4.87"/>
      </g>
    </g>
  </g>
</svg>